{"title":"Cabin Fever UNRATED DiRECTORS CUT 2002 BDRiP AC3-5 1 XviD-AXED","uid":7453244,"size":1487122137,"categoryP":"video","categoryS":"movies","magnet":"?xt=urn:btih:783cc1aee510bedd5db203d30b02eca13cc75db9&amp;dn=Cabin+Fever+UNRATED+DiRECTORS+CUT+2002+BDRiP+AC3-5+1+XviD-AXED&amp;tr=udp%3A%2F%2Ftracker.openbittorrent.com%3A80&amp;tr=udp%3A%2F%2Fopen.demonii.com%3A1337&amp;tr=udp%3A%2F%2Ftracker.coppersurfer.tk%3A6969&amp;tr=udp%3A%2F%2Fexodus.desync.com%3A6969","seeders":1,"leechers":0,"uploader":".BONE.","files":4,"time":1342585514,"description":"General\nComplete name: Cabin.Fever.UNRATED.DiRECTORS.CUT.2002.BDRiP.AC3-5.1.XviD-AXED.avi\nFormat: AVI\nFormat/Info: Audio Video Interleave\nFile size: 1.37 GiB\nDuration: 1h 37mn\nOverall bit rate: 2 005 Kbps\n\nVideo\nID: 0\nFormat: MPEG-4 Visual\nFormat profile: Advanced Simple@L4\nFormat settings, BVOP: 2\nFormat settings, QPel: No\nFormat settings, GMC: No warppoints\nFormat settings, Matrix: Default (H.263)\nMuxing mode: Packed bitstream\nCodec ID: XVID\nCodec ID/Hint: XviD\nDuration: 1h 37mn\nBit rate: 1 550 Kbps\nWidth: 720 pixels\nHeight: 304 pixels\nDisplay aspect ratio: 2.35:1\nFrame rate: 23.976 fps\nColor space: YUV\nChroma subsampling: 4:2:0\nBit depth: 8 bits\nScan type: Progressive\nCompression mode: Lossy\nBits/(Pixel*Frame): 0.295\nStream size: 1.06 GiB (77%)\nWriting library: XviD 1.1.2 (UTC 2006-11-01)\n\nAudio\nID: 1\nFormat: AC-3\nFormat/Info: Audio Coding 3\nMode extension: CM (complete main)\nFormat settings, Endianness: Big\nCodec ID: 2000\nDuration: 1h 37mn\nBit rate mode: Constant\nBit rate: 448 Kbps\nChannel(s): 6 channels\nChannel positions: Front: L C R, Side: L R, LFE\nSampling rate: 48.0 KHz\nBit depth: 16 bits\nCompression mode: Lossy\nStream size: 313 MiB (22%)\nAlignment: Aligned on interleaves\nInterleave, duration: 64 ms (1.53 video frames)\nInterleave, preload duration: 192 ms\nTitle: cabin.fever.dc\n &lt;a href=&quot;\nhttp://www.imdb.com/title/tt0303816/&quot; rel=&quot;nofollow&quot; target=&quot;_NEW&quot;&gt;\nhttp://www.imdb.com/title/tt0303816/&lt;/a&gt;\n &lt;a href=&quot;\nhttp://img19.imageshack.us/img19/8785/scrncap00004.png&quot; rel=&quot;nofollow&quot; target=&quot;_NEW&quot;&gt;\nhttp://img19.imageshack.us/img19/8785/scrncap00004.png&lt;/a&gt; &lt;a href=&quot;\nhttp://img3.imageshack.us/img3/8746/scrncap00023.png&quot; rel=&quot;nofollow&quot; target=&quot;_NEW&quot;&gt;\nhttp://img3.imageshack.us/img3/8746/scrncap00023.png&lt;/a&gt; &lt;a href=&quot;\nhttp://img805.imageshack.us/img805/2090/scrncap00024.png&quot; rel=&quot;nofollow&quot; target=&quot;_NEW&quot;&gt;\nhttp://img805.imageshack.us/img805/2090/scrncap00024.png&lt;/a&gt; &lt;a href=&quot;\nhttp://img39.imageshack.us/img39/3739/scrncap00027.png&quot; rel=&quot;nofollow&quot; target=&quot;_NEW&quot;&gt;\nhttp://img39.imageshack.us/img39/3739/scrncap00027.png&lt;/a&gt;","torrent":{"xt":"urn:btih:783cc1aee510bedd5db203d30b02eca13cc75db9","amp;dn":"Cabin+Fever+UNRATED+DiRECTORS+CUT+2002+BDRiP+AC3-5+1+XviD-AXED","amp;tr":["udp%3A%2F%2Ftracker.openbittorrent.com%3A80","udp%3A%2F%2Fopen.demonii.com%3A1337","udp%3A%2F%2Ftracker.coppersurfer.tk%3A6969","udp%3A%2F%2Fexodus.desync.com%3A6969"],"infoHash":"783cc1aee510bedd5db203d30b02eca13cc75db9","infoHashBuffer":{"type":"Buffer","data":[120,60,193,174,229,16,190,221,93,178,3,211,11,2,236,161,60,199,93,185]},"announce":[],"urlList":[]}}